<svg width="101" height="28" viewBox="0 0 101 28" fill="none" xmlns="http://www.w3.org/2000/svg"><g clip-path="url(#clip0)"><path d="M91.8964 5.86963C91.8923 5.86963 91.8876 5.86963 91.8828 5.86963C87.2971 5.86963 83.5801 9.45538 83.5801 13.8792C83.5801 17.0515 85.4916 19.7926 88.2644 21.09C89.3535 21.6413 90.5862 21.9523 91.8944 21.9523C91.8951 21.9523 91.8957 21.9523 91.8964 21.9523H100.163V13.845C100.149 9.44553 96.4563 5.88275 91.8971 5.87029L91.8964 5.86963ZM96.81 18.6731H91.942C91.9175 18.6744 91.8882 18.675 91.859 18.675C91.7093 18.675 91.5631 18.658 91.4236 18.6265C91.2733 18.5805 91.0848 18.5484 90.8896 18.5398C88.6209 18.0529 86.9508 16.1386 86.9352 13.8457C86.9352 11.2135 89.1454 9.08132 91.8726 9.08132C94.5998 9.08132 96.81 11.2135 96.81 13.8444V18.6737V18.6731Z" fill="black"></path><path d="M25.649 5.86963C25.6456 5.86963 25.6408 5.86963 25.6367 5.86963C21.051 5.86963 17.334 9.45538 17.334 13.8792C17.334 17.0515 19.2455 19.7926 22.0183 21.09C23.1075 21.6413 24.3401 21.9523 25.6483 21.9523C25.6489 21.9523 25.6496 21.9523 25.6503 21.9523H33.917V13.845C33.9034 9.44553 30.2095 5.8821 25.6496 5.87029L25.649 5.86963ZM30.5626 18.6731H25.6945C25.67 18.6744 25.6408 18.675 25.6115 18.675C25.4619 18.675 25.3156 18.658 25.1762 18.6265C25.0258 18.5805 24.8374 18.5484 24.6421 18.5398C22.3734 18.0529 20.7034 16.1386 20.6877 13.8457C20.6877 11.2135 22.8979 9.08132 25.6251 9.08132C28.3524 9.08132 30.5626 11.2135 30.5626 13.8444V18.6737V18.6731Z" fill="black"></path><path d="M12.8133 7.28771V7.24309C12.5487 7.06918 12.2453 6.90643 11.927 6.76993C11.8895 6.7555 11.8895 6.75484 11.8895 6.75418C11.8895 6.73056 11.8691 6.71087 11.8446 6.71087C11.844 6.71087 11.844 6.71087 11.8433 6.71087C11.7508 6.66625 11.614 6.62162 11.5215 6.58356C10.6174 6.19243 9.56233 5.96406 8.45144 5.96209H3.39838V0.997559H0.000421662V13.9815C-0.0458368 18.3232 3.72015 21.9562 8.26709 21.9562C12.8378 21.949 16.5406 18.3724 16.5406 13.9618C16.5406 11.1845 15.0718 8.73737 12.8433 7.30478L12.8133 7.28771ZM8.26573 18.7176C5.55688 18.7176 3.35144 16.5474 3.35144 13.9329V9.19215H8.40382C8.71607 9.19806 9.01675 9.23021 9.30858 9.28665C11.5419 9.76834 13.2127 11.6852 13.2256 13.9808C13.2133 16.5999 11.0113 18.7176 8.29566 18.7176C8.28477 18.7176 8.27457 18.7176 8.26369 18.7176H8.26573Z" fill="black"></path><path d="M47.2104 10.9209C46.3084 9.83482 44.9329 9.1451 43.3914 9.1451C43.3777 9.1451 43.3648 9.1451 43.3512 9.1451C40.6893 9.1451 38.4852 11.272 38.4852 13.8859V22.0023H35.041L35.0873 13.8898C35.0873 9.50341 38.8533 5.91504 43.3546 5.91504C43.3614 5.91504 43.3689 5.91504 43.3764 5.91504C45.5363 5.91504 47.5002 6.7242 48.9601 8.04588C48.1743 8.79532 47.5778 9.81382 47.2097 10.9216L47.2104 10.9209Z" fill="black"></path><path d="M81.2861 9.32631C82.2045 10.5876 82.7548 12.1541 82.7562 13.8452V21.9532H79.4045V13.8905C79.4045 13.8846 79.4045 13.8774 79.4045 13.8708C79.4045 12.8162 79.0589 11.8397 78.4705 11.0404C78.4813 11.0109 78.4351 11.0109 78.3888 10.9663C78.3358 10.8718 78.2575 10.7957 78.1623 10.7464C78.1133 10.7005 78.1133 10.6559 78.0671 10.6178C77.9705 10.5023 77.865 10.4006 77.7494 10.31C77.08 9.73121 76.2569 9.31253 75.3466 9.11696C75.1113 9.10187 74.9222 9.06971 74.7432 9.01721C74.5759 9.02115 74.4378 8.97653 74.2541 8.97653H69.397V20.1846C69.4895 22.4441 65.999 22.6659 65.999 20.14V5.64868H74.2664C75.5732 5.64934 76.8038 5.9604 77.8847 6.50968C79.2623 7.12984 80.4283 8.09781 81.2677 9.29612L81.2861 9.32631Z" fill="black"></path><path d="M61.3556 5.73779H56.4876C55.1774 5.74304 53.9434 6.05345 52.857 6.59945C50.0801 7.89817 48.1699 10.6387 48.1699 13.8097C48.1699 18.221 51.8672 21.7995 56.4352 21.8192C60.938 21.8192 64.7039 18.2308 64.7039 13.8445H64.7502V5.73845H61.355L61.3556 5.73779ZM61.3094 13.8451C61.2897 16.4603 59.0869 18.5734 56.3733 18.5734C53.6468 18.5734 51.4366 16.4412 51.4366 13.811C51.4366 11.5187 53.1155 9.60442 55.3522 9.15095C55.5842 9.13651 55.7726 9.10501 55.9522 9.05251C56.0631 9.02692 56.2087 9.01051 56.3584 9.01051C56.3876 9.01051 56.4162 9.01117 56.4454 9.01248H61.3094V13.8418V13.8451Z" fill="black"></path></g></svg>