<svg id="Layer_1" xmlns="http://www.w3.org/2000/svg" width="70" height="52.35" viewBox="0 0 70 52.35"><defs><style>.cls-1,.cls-2{stroke-width:0px;}.cls-2{fill:#fff;}</style></defs><g id="Layer_2"><g id="Layer_1-2"><path class="cls-1" d="m70,24.55c-.01-1.57-.64-3.16-1.34-4.35,0,0-9.89-16.99-9.97-17.13v-.02h-.01c-1.12-1.79-3.03-2.92-5.14-3.04H16.47c-2.11.12-4.02,1.26-5.14,3.04h0v.02c-.1.14-9.99,17.13-9.99,17.13C.64,21.39.01,22.98,0,24.55c-.02,2.17.99,4.23,2.73,5.54h0l25.85,19.71c2.03,1.48,4.01,2.56,6.42,2.56s4.38-1.08,6.42-2.56l25.85-19.71h0c1.74-1.31,2.75-3.36,2.73-5.54Z"/><path class="cls-2" d="m12.49,27.35c1.01,0,2.02-.1,3.01-.29l.16.88s-1.19.37-3.1.37c-2.8,0-4.21-.51-4.21-4.38,0-1.15.16-2.24.44-2.88.49-1.15,1.6-1.5,3.56-1.5,1.52,0,2.62.17,3.19.86.46.59.64,1.39.64,2.82,0,.33-.02.64-.04.99-.31.02-1.46.15-2.84.15s-2.53-.07-2.53-.07l-.57-.39c-.09-.08-.21-.12-.33-.13-.35,0-.31.33-.31.57,0,.77.02,1.74.55,2.33.44.5,1.25.68,2.38.68Zm-.04-6.89c-2.69,0-2.77.48-2.88,2.84,1.26.2,2.75.16,2.75.16,0,0,1.52.04,2.62-.07,0-2.66-.51-2.93-2.49-2.93h0Z"/><path class="cls-2" d="m22.8,16.75c-.38-.05-.77-.07-1.15-.07-.57,0-1.14.04-1.39.31-.27.31-.31.9-.31,1.52v1.14h2.69v.9h-2.7v6.47c0,.24.04.29.26.33l.48.09v.73h-2.62v-.71l.48-.09c.22-.06.26-.11.26-.33v-6.49h-1.61v-.9h1.61v-1.15c0-.91.05-1.8.82-2.33.46-.33,1.19-.39,1.87-.39.47.01.93.05,1.39.13l-.07.84Z"/><path class="cls-2" d="m23.67,28.17v-.71l.48-.09c.22-.06.26-.11.26-.33v-6.23c0-.24-.04-.29-.26-.33l-.48-.09v-.73h1.89v7.37c0,.24.04.29.26.33l.48.09v.73h-2.62Zm.39-10.81v-1.39h1.45v1.39h-1.45Z"/><path class="cls-2" d="m34.26,19.91l-.15.86c-.88-.18-1.78-.28-2.68-.29-2.33,0-2.84.51-2.84,3.45s.51,3.45,2.84,3.45c.9-.01,1.79-.11,2.68-.29l.15.86c-.99.23-1.99.36-3.01.37-2.86,0-3.87-.77-3.87-4.38s1.01-4.38,3.87-4.38c1.01,0,2.02.13,3.01.37Z"/><path class="cls-2" d="m39.29,28.3c-3.28,0-3.87-.77-3.87-4.38s.59-4.38,3.87-4.38,3.87.77,3.87,4.38-.59,4.38-3.87,4.38Zm0-7.84c-2.42,0-2.66.37-2.66,3.46s.24,3.46,2.66,3.46,2.66-.37,2.66-3.46-.24-3.46-2.66-3.46Z"/><path class="cls-2" d="m51.07,28.17l-.07-.46c-.02-.11-.05-.29-.31-.29-.13,0-.26.09-.37.16l-.88.59c-.51.09-1.03.13-1.55.13-2.79,0-3.24-1.8-3.24-4.38s.44-4.38,3.39-4.38c.98,0,1.97.1,2.93.29v-2.71c0-.24-.04-.29-.26-.33l-.48-.09v-.73h1.89v11.05c0,.24.04.29.26.33l.48.09v.73h-1.78Zm-.11-7.48c-.84-.13-1.69-.21-2.55-.22-2.13,0-2.56.72-2.56,3.45s.44,3.43,2.56,3.43c.86-.02,1.72-.14,2.55-.37v-6.29Z"/><path class="cls-2" d="m57.97,27.35c1.01,0,2.02-.1,3.01-.29l.17.88s-1.19.37-3.1.37c-2.8,0-4.22-.51-4.22-4.38,0-1.15.16-2.24.44-2.88.49-1.15,1.59-1.5,3.56-1.5,1.52,0,2.62.17,3.19.86.46.59.64,1.39.64,2.82,0,.33-.02.64-.04.99-.31.02-1.46.15-2.84.15s-2.53-.07-2.53-.07l-.57-.39c-.09-.08-.21-.12-.33-.13-.35,0-.31.33-.31.57,0,.77.02,1.74.55,2.33.44.5,1.25.68,2.39.68Zm-.04-6.89c-2.69,0-2.77.48-2.88,2.84,1.26.2,2.74.16,2.74.16,0,0,1.52.04,2.62-.07,0-2.66-.51-2.93-2.49-2.93h0Z"/></g></g><script xmlns=""/></svg>