<svg width="560" height="650" viewBox="0 0 560 650" fill="none" xmlns="http://www.w3.org/2000/svg">
<path d="M48 0H550C555.523 0 560 4.47715 560 10V640C560 645.523 555.523 650 550 650H48V0Z" fill="#F5A4C8" fill-opacity="0.8"/>
<path d="M0 0C0 6.5414 4.79002 6.54141 4.79002 13C4.79002 19.5414 0 19.5414 0 26C0 32.4586 4.79002 32.5414 4.79002 39C4.79002 45.5414 0 45.5414 0 52C0 58.5414 4.79002 58.5414 4.79002 65C4.79002 71.5414 0 71.5414 0 78C0 84.4586 4.79002 84.5414 4.79002 91C4.79002 97.5414 0 97.5414 0 104C0 110.541 4.79002 110.541 4.79002 117C4.79002 123.541 0 123.541 0 130C0 136.541 4.79002 136.541 4.79002 143C4.79002 149.541 0 149.541 0 156C0 162.541 4.79002 162.541 4.79002 169C4.79002 175.541 0 175.541 0 182C0 188.541 4.79002 188.541 4.79002 195C4.79002 201.541 0 201.541 0 208C0 214.541 4.79002 214.541 4.79002 221C4.79002 227.541 0 227.541 0 234C0 240.541 4.79002 240.541 4.79002 247C4.79002 253.541 0 253.541 0 260C0 266.459 4.79002 266.541 4.79002 273C4.79002 279.541 0 279.541 0 286C0 292.541 4.79002 292.541 4.79002 299C4.79002 305.541 0 305.541 0 312C0 318.459 4.79002 318.541 4.79002 325C4.79002 331.541 0 331.541 0 338C0 344.541 4.79002 344.541 4.79002 351C4.79002 357.541 0 357.541 0 364C0 370.541 4.79002 370.541 4.79002 377C4.79002 383.541 0 383.541 0 390C0 396.541 4.79002 396.541 4.79002 403C4.79002 409.541 0 409.541 0 416C0 422.541 4.79002 422.541 4.79002 429C4.79002 435.541 0 435.541 0 442C0 448.541 4.79002 448.541 4.79002 455C4.79002 461.541 0 461.541 0 468C0 474.541 4.79002 474.541 4.79002 481C4.79002 487.541 0 487.541 0 494C0 500.459 4.79002 500.541 4.79002 507C4.79002 513.541 0 513.541 0 520C0 526.541 4.79002 526.541 4.79002 533C4.79002 539.541 0 539.541 0 546C0 552.459 4.79002 552.541 4.79002 559C4.79002 565.541 0 565.541 0 572C0 578.541 4.79002 578.541 4.79002 585C4.79002 591.541 0 591.541 0 598C0 604.541 4.79002 604.541 4.79002 611C4.79002 617.541 0 617.541 0 624C0 630.541 4.79002 630.541 4.79002 637C4.79002 643.541 0 643.541 0 650H48V0H0Z" fill="#F5A4C8" fill-opacity="0.8"/>
</svg>
