<svg xmlns="http://www.w3.org/2000/svg" viewBox="0 0 785 48.1" style="enable-background:new 0 0 785 48.1" xml:space="preserve"><switch><g><path d="M785 0c-7.9 0-7.9 4.8-15.7 4.8-7.9 0-7.9-4.8-15.7-4.8-7.8 0-7.9 4.8-15.7 4.8C730 4.8 730 0 722.2 0c-7.9 0-7.9 4.8-15.7 4.8-7.9 0-7.9-4.8-15.7-4.8-7.8 0-7.9 4.8-15.7 4.8-7.9 0-7.9-4.8-15.7-4.8-7.9 0-7.9 4.8-15.7 4.8-7.9 0-7.9-4.8-15.7-4.8-7.9 0-7.9 4.8-15.7 4.8-7.9 0-7.9-4.8-15.7-4.8-7.9 0-7.9 4.8-15.7 4.8C573 4.8 573 0 565.2 0c-7.9 0-7.9 4.8-15.7 4.8-7.9 0-7.9-4.8-15.7-4.8-7.9 0-7.9 4.8-15.7 4.8-7.9 0-7.9-4.8-15.7-4.8-7.9 0-7.9 4.8-15.7 4.8-7.9 0-7.9-4.8-15.7-4.8-7.8 0-7.9 4.8-15.7 4.8-7.9 0-7.9-4.8-15.7-4.8-7.9 0-7.9 4.8-15.7 4.8C416 4.8 416 0 408.2 0c-7.8 0-7.9 4.8-15.7 4.8-7.9 0-7.9-4.8-15.7-4.8-7.9 0-7.9 4.8-15.7 4.8-7.9 0-7.9-4.8-15.7-4.8-7.9 0-7.9 4.8-15.7 4.8-7.9 0-7.9-4.8-15.7-4.8-7.9 0-7.9 4.8-15.7 4.8-7.9 0-7.9-4.8-15.7-4.8-7.9 0-7.9 4.8-15.7 4.8C259 4.8 259 0 251.2 0c-7.9 0-7.9 4.8-15.7 4.8-7.9 0-7.9-4.8-15.7-4.8-7.9 0-7.9 4.8-15.7 4.8-7.9 0-7.9-4.8-15.7-4.8-7.8 0-7.9 4.8-15.7 4.8-7.9 0-7.9-4.8-15.7-4.8-7.9 0-7.9 4.8-15.7 4.8-7.9 0-7.9-4.8-15.7-4.8-7.8 0-7.9 4.8-15.7 4.8C102 4.8 102 0 94.2 0c-7.9 0-7.9 4.8-15.7 4.8-7.9 0-7.9-4.8-15.7-4.8-7.9 0-7.9 4.8-15.7 4.8-7.9 0-7.9-4.8-15.7-4.8-7.9 0-7.9 4.8-15.7 4.8C7.8 4.8 7.8 0 0 0v48.1h785V0z"/></g></switch></svg>