<?xml version="1.0" encoding="UTF-8"?>
<svg xmlns="http://www.w3.org/2000/svg" xmlns:xlink="http://www.w3.org/1999/xlink" width="30px" height="30px" viewBox="0 0 30 30" version="1.1">
<g id="surface1">
<path style=" stroke:none;fill-rule:evenodd;fill:rgb(0%,0%,0%);fill-opacity:1;" d="M 15.003906 0 C 23.285156 0 30.007812 6.714844 30.007812 15.003906 C 30.007812 23.285156 23.292969 30.007812 15.003906 30.007812 C 6.722656 30.007812 0 23.292969 0 15.003906 C 0 6.722656 6.714844 0 15.003906 0 Z M 11.496094 6.769531 L 18.515625 6.769531 C 21.152344 6.769531 23.304688 8.902344 23.304688 11.496094 L 23.304688 18.496094 C 23.304688 21.097656 21.152344 23.222656 18.515625 23.222656 L 11.496094 23.222656 C 8.855469 23.222656 6.707031 21.097656 6.707031 18.496094 L 6.707031 11.496094 C 6.707031 8.894531 8.867188 6.769531 11.496094 6.769531 Z M 14.960938 10.558594 C 17.523438 10.558594 19.605469 12.636719 19.605469 15.203125 C 19.605469 17.769531 17.523438 19.847656 14.960938 19.847656 C 12.394531 19.847656 10.316406 17.769531 10.316406 15.203125 C 10.316406 12.636719 12.394531 10.558594 14.960938 10.558594 Z M 14.960938 12.125 C 16.652344 12.125 18.027344 13.5 18.027344 15.195312 C 18.027344 16.886719 16.652344 18.261719 14.960938 18.261719 C 13.257812 18.261719 11.890625 16.886719 11.890625 15.195312 C 11.890625 13.5 13.265625 12.125 14.960938 12.125 Z M 19.449219 9.910156 C 19.863281 9.910156 20.207031 10.242188 20.207031 10.667969 C 20.207031 11.082031 19.875 11.421875 19.449219 11.421875 C 19.035156 11.421875 18.695312 11.089844 18.695312 10.667969 C 18.695312 10.253906 19.027344 9.910156 19.449219 9.910156 Z M 12.070312 8.109375 L 17.9375 8.109375 C 20.144531 8.109375 21.945312 9.902344 21.945312 12.097656 L 21.945312 18 C 21.945312 20.199219 20.144531 21.988281 17.9375 21.988281 L 12.070312 21.988281 C 9.863281 21.988281 8.066406 20.199219 8.066406 18 L 8.066406 12.097656 C 8.066406 9.902344 9.863281 8.109375 12.070312 8.109375 Z M 12.070312 8.109375 "/>
</g>
</svg>
