<?xml version="1.0" encoding="UTF-8"?>
<svg xmlns="http://www.w3.org/2000/svg" xmlns:xlink="http://www.w3.org/1999/xlink" width="30px" height="30px" viewBox="0 0 30 30" version="1.1">
<g id="surface1">
<path style=" stroke:none;fill-rule:evenodd;fill:rgb(0%,0%,0%);fill-opacity:1;" d="M 15.003906 0 C 23.285156 0 30.007812 6.714844 30.007812 15.003906 C 30.007812 23.285156 23.292969 30.007812 15.003906 30.007812 C 6.722656 30.007812 0 23.292969 0 15.003906 C 0 6.722656 6.714844 0 15.003906 0 Z M 13.070312 12.023438 L 16.148438 12.023438 L 16.148438 13.601562 L 16.191406 13.601562 C 16.625 12.828125 17.667969 12.023438 19.234375 12.023438 C 22.484375 12.023438 23.085938 14.050781 23.085938 16.679688 L 23.085938 22.042969 L 19.875 22.042969 L 19.875 17.289062 C 19.875 16.15625 19.847656 14.699219 18.199219 14.699219 C 16.527344 14.699219 16.273438 15.929688 16.273438 17.210938 L 16.273438 22.042969 L 13.058594 22.042969 L 13.058594 12.023438 Z M 10.847656 9.242188 C 10.847656 10.160156 10.097656 10.917969 9.171875 10.917969 C 8.253906 10.917969 7.496094 10.171875 7.496094 9.242188 C 7.496094 8.324219 8.246094 7.570312 9.171875 7.570312 C 10.089844 7.570312 10.847656 8.316406 10.847656 9.242188 Z M 7.507812 12.023438 L 10.847656 12.023438 L 10.847656 22.042969 L 7.507812 22.042969 Z M 7.507812 12.023438 "/>
</g>
</svg>
